<svg width="32" height="32" viewBox="0 0 32 32" fill="none" xmlns="http://www.w3.org/2000/svg">
<g clip-path="url(#clip0_1_2)">
<rect width="32" height="32" fill="white"/>
<path d="M15.4132 3C12.2014 3 9.27894 4.21387 7.07986 6.17919C8.06366 6.67052 8.98958 7.36416 9.79977 8.31792C12.2882 11.2659 14.7766 14.3584 18.0463 14.5896C22.5891 14.9364 24.9907 13.4624 24.9039 11.9017C24.9039 11.9017 25.309 13.896 22.7627 15.3988C21.2292 16.2948 19.4641 16.8439 17.5544 16.5549C18.2488 16.8439 18.9433 17.0462 19.6667 17.104C25.1354 17.5087 27.8553 15.3988 27.7106 13.5202C27.7106 13.5202 28.2894 16.1503 25.3669 17.9133C22.9942 19.3584 19.1748 19.9364 16.0498 18.6358C12.4329 17.1329 9.59722 13.2023 7.28241 10.1676C6.67477 9.44509 5.89352 8.89595 5.11227 8.54913C5.11227 8.54913 5.11227 8.57803 5.08333 8.60694C5.83565 9.06936 6.50116 9.6474 6.99306 10.3988C10.581 15.8324 12.7801 19.7341 18.3356 20.2832C23.8044 20.8324 27.537 18.0289 27.8843 15.8902C27.8843 15.8902 28.0579 19.0405 24.5856 21.237C21.8368 23 17.8438 23.9249 14.3426 22.3931C10.0602 20.5434 8.35301 18.1156 5.6331 13.2601C5.22801 12.5087 4.50463 11.7572 3.72338 11.2081C3.72338 11.2081 3.72338 11.237 3.72338 11.2659C4.30208 11.7572 4.88079 12.4798 5.40162 13.578C7.54282 18.1156 10.4942 23.4335 16.9757 24.0983C22.8495 24.7052 26.7558 20.8902 27.2766 19.3873C27.2766 19.4451 26.1192 22.7688 23.3125 24.7341C20.7373 26.5549 16.7731 27.3642 13.0405 26.3526C9.51042 25.3121 5.74884 23.3757 3.63657 17.0751C3.20255 15.8035 3.08681 15.341 3 14.8497C3 15.0809 3 15.2832 3 15.5145C3 22.422 8.58449 28 15.5 28C22.4155 28 28 22.422 28 15.5145C28 8.60694 22.3287 3 15.4132 3Z" fill="#86162C"/>
</g>
<defs>
<clipPath id="clip0_1_2">
<rect width="32" height="32" fill="white"/>
</clipPath>
</defs>
</svg>
