<?xml version="1.0" encoding="UTF-8"?>
<svg id="Ebene_1" xmlns="http://www.w3.org/2000/svg" version="1.1" viewBox="0 0 86.4 86.4">
  <!-- Generator: Adobe Illustrator 29.8.1, SVG Export Plug-In . SVG Version: 2.1.1 Build 2)  -->
  <defs>
    <style>
      .st0 {
        fill: #86162c;
      }
    </style>
  </defs>
  <path class="st0" d="M43.2,0c-11.1,0-21.2,4.2-28.8,11,3.4,1.7,6.6,4.1,9.4,7.4,8.6,10.2,17.2,20.9,28.5,21.7,15.7,1.2,24-3.9,23.7-9.3,0,0,1.4,6.9-7.4,12.1-5.3,3.1-11.4,5-18,4,2.4,1,4.8,1.7,7.3,1.9,18.9,1.4,28.3-5.9,27.8-12.4,0,0,2,9.1-8.1,15.2-8.2,5-21.4,7-32.2,2.5-12.5-5.2-22.3-18.8-30.3-29.3-2.1-2.5-4.8-4.4-7.5-5.6,0,0,0,.1-.1.2,2.6,1.6,4.9,3.6,6.6,6.2,12.4,18.8,20,32.3,39.2,34.2,18.9,1.9,31.8-7.8,33-15.2,0,0,.6,10.9-11.4,18.5-9.5,6.1-23.3,9.3-35.4,4-14.8-6.4-20.7-14.8-30.1-31.6-1.4-2.6-3.9-5.2-6.6-7.1,0,0,0,.1,0,.2,2,1.7,4,4.2,5.8,8,7.4,15.7,17.6,34.1,40,36.4,20.3,2.1,33.8-11.1,35.6-16.3h0c0,.2-4,11.7-13.7,18.5-8.9,6.3-22.6,9.1-35.5,5.6-12.2-3.6-25.2-10.3-32.5-32.1-1.5-4.4-1.9-6-2.2-7.7,0,.8,0,1.5,0,2.3,0,23.9,19.3,43.2,43.2,43.2s43.2-19.3,43.2-43.2S67.1,0,43.2,0Z"/>
</svg>